<svg xmlns="http://www.w3.org/2000/svg" viewBox="0 0 32 32" width="32" height="32">
  <defs>
    <linearGradient id="bagGradient" x1="0%" y1="0%" x2="100%" y2="100%">
      <stop offset="0%" style="stop-color:#3b82f6;stop-opacity:1" />
      <stop offset="100%" style="stop-color:#8b5cf6;stop-opacity:1" />
    </linearGradient>
  </defs>
  <path d="M8 10h2c0-3.314 2.686-6 6-6s6 2.686 6 6h2c1.105 0 2 .895 2 2v14c0 1.105-.895 2-2 2H8c-1.105 0-2-.895-2-2V12c0-1.105.895-2 2-2z" fill="url(#bagGradient)"/>
  <path d="M12 10h8c0-2.209-1.791-4-4-4s-4 1.791-4 4z" fill="none" stroke="#ffffff" stroke-width="1.5" stroke-linecap="round"/>
  <circle cx="13" cy="18" r="1.5" fill="#ffffff" opacity="0.8"/>
  <circle cx="19" cy="18" r="1.5" fill="#ffffff" opacity="0.8"/>
</svg>